# xmcd
#
# Track frame offsets:
#	150
#	8983
#	22603
#	41407
#	65370
#	87075
#	104023
#	126731
#	144409
#	159297
#	179983
#	201015
#	217989
#	226848
#	241774
#
# Disc length: 3408 seconds
#
# Revision: 0
# Processed by: cddbd v1.5.1PL2 Copyright (c) Steve Scherf et al.
# Submitted via: dBpowerAMP V4.0
#
DISCID=c40d4e0f
DTITLE=Guy - Guy III
DYEAR=2000
DGENRE=R and B
TTITLE0=Intro
TTITLE1=We're Comin
TTITLE2=Dancin'
TTITLE3=Rescue Me
TTITLE4=Teddy's Jam III
TTITLE5=Do It
TTITLE6=Why You Wanna Keep Me From My Baby
TTITLE7=Tellin' Me No
TTITLE8=Not A Day
TTITLE9=Love Online
TTITLE10=Spend Time
TTITLE11=Don't U Miss Me
TTITLE12=2004
TTITLE13=Fly Away
TTITLE14=Someday
EXTD=
EXTT0=
EXTT1=
EXTT2=
EXTT3=
EXTT4=
EXTT5=
EXTT6=
EXTT7=
EXTT8=
EXTT9=
EXTT10=
EXTT11=
EXTT12=
EXTT13=
EXTT14=
PLAYORDER=
